<svg xmlns="http://www.w3.org/2000/svg" width="40" height="40" viewBox="0 0 40 40">
    <g fill="none" fill-rule="nonzero" transform="translate(.4)">
        <ellipse cx="19.461" cy="19.815" fill="#7668FF" rx="19.461" ry="19.468"/>
        <path fill="#F1F2F2" d="M31.088 21.382v8.026h-4.652v-7.489c0-1.88-.671-3.164-2.355-3.164-1.286 0-2.05.865-2.386 1.702-.123.299-.154.714-.154 1.134v7.817h-4.652s.062-12.683 0-13.996h4.652v1.983c-.01.016-.023.031-.031.046h.03v-.046c.62-.951 1.722-2.312 4.193-2.312 3.06 0 5.355 2 5.355 6.299zM12.022 8.665c-1.591 0-2.632 1.045-2.632 2.418 0 1.344 1.01 2.419 2.571 2.419h.03c1.623 0 2.632-1.075 2.632-2.419-.031-1.373-1.01-2.418-2.6-2.418zM9.666 29.408h4.65V15.412h-4.65v13.996z"/>
    </g>
</svg>
