<svg xmlns="http://www.w3.org/2000/svg" xmlns:xlink="http://www.w3.org/1999/xlink" width="225" height="171" viewBox="0 0 225 171">
    <defs>
        <linearGradient id="b" x1="50%" x2="156.316%" y1="25.659%" y2="193.582%">
            <stop offset="0%" stop-color="#B9E1FF"/>
            <stop offset="100%" stop-color="#9149FF"/>
        </linearGradient>
        <path id="a" d="M55.732 164.804c57.306 12.119 133.158 11.329 159.291-47.836C241.156 57.803 216.305 0 136.283 0 56.26 0 74.88 67.761 27.085 77.224c-47.795 9.462-28.66 75.46 28.646 87.58z"/>
        <radialGradient id="c" cy="0%" r="95.478%" fx="50%" fy="0%" gradientTransform="matrix(.12572 .98619 -.74848 .16564 .437 -.493)">
            <stop offset="0%" stop-color="#FFF"/>
            <stop offset="100%" stop-color="#FFF" stop-opacity=".551"/>
        </radialGradient>
        <linearGradient id="e" x1="-39.776%" x2="86.035%" y1="-18.576%" y2="91.793%">
            <stop offset="0%" stop-color="#39AEFF"/>
            <stop offset="16.853%" stop-color="#3CABFF"/>
            <stop offset="100%" stop-color="#5818B9"/>
        </linearGradient>
        <linearGradient id="f" x1="40.436%" x2="78.594%" y1="90.899%" y2="-23.379%">
            <stop offset="0%" stop-color="#FFCAAE"/>
            <stop offset="100%" stop-color="#E18E6A"/>
        </linearGradient>
        <linearGradient id="g" x1="41.757%" x2="-60.832%" y1="41.04%" y2="155.571%">
            <stop offset="0%" stop-color="#FFCAAE"/>
            <stop offset="100%" stop-color="#FAA986"/>
        </linearGradient>
        <linearGradient id="h" x1="214.751%" x2="28.553%" y1="-8.844%" y2="113.849%">
            <stop offset="0%" stop-color="#39AEFF"/>
            <stop offset="16.853%" stop-color="#3CABFF"/>
            <stop offset="84.423%" stop-color="#5818B9"/>
            <stop offset="100%" stop-color="#2F2E41"/>
        </linearGradient>
        <linearGradient id="i" x1="214.751%" x2="28.553%" y1="-31.169%" y2="138.073%">
            <stop offset="0%" stop-color="#39AEFF"/>
            <stop offset="16.853%" stop-color="#3CABFF"/>
            <stop offset="84.423%" stop-color="#5818B9"/>
            <stop offset="100%" stop-color="#2F2E41"/>
        </linearGradient>
        <linearGradient id="j" x1="50%" x2="33.215%" y1="40.989%" y2="9.498%">
            <stop offset="0%" stop-color="#FFCAAE"/>
            <stop offset="100%" stop-color="#FAA986"/>
        </linearGradient>
        <linearGradient id="k" x1="37.915%" x2="64.009%" y1="23.151%" y2="166.581%">
            <stop offset="0%" stop-color="#39AEFF"/>
            <stop offset="20.399%" stop-color="#3CABFF"/>
            <stop offset="100%" stop-color="#5818B9"/>
        </linearGradient>
        <linearGradient id="l" x1="10.194%" x2="92.37%" y1="25.973%" y2="114.17%">
            <stop offset="0%" stop-color="#39AEFF"/>
            <stop offset="20.399%" stop-color="#3CABFF"/>
            <stop offset="100%" stop-color="#5818B9"/>
        </linearGradient>
        <linearGradient id="m" x1="50%" x2="25.706%" y1="42.702%" y2="17.197%">
            <stop offset="0%" stop-color="#FFCAAE"/>
            <stop offset="100%" stop-color="#FAA986"/>
        </linearGradient>
        <linearGradient id="n" x1="-20.705%" x2="121.348%" y1="0%" y2="192.452%">
            <stop offset="0%" stop-color="#39AEFF"/>
            <stop offset="20.399%" stop-color="#3CABFF"/>
            <stop offset="100%" stop-color="#5818B9"/>
        </linearGradient>
        <linearGradient id="o" x1="38.19%" x2="65.641%" y1="-35.618%" y2="181.25%">
            <stop offset="0%" stop-color="#FFF4E7"/>
            <stop offset="47.226%" stop-color="#FFC49F"/>
            <stop offset="100%" stop-color="#FF6CC7"/>
        </linearGradient>
        <linearGradient id="p" x1="-24.839%" x2="149.115%" y1="-21.337%" y2="159.357%">
            <stop offset="0%" stop-color="#FFC275"/>
            <stop offset="47.226%" stop-color="#F72"/>
            <stop offset="100%" stop-color="#FF43B8"/>
        </linearGradient>
        <linearGradient id="q" x1="32.687%" x2="72.929%" y1="-35.618%" y2="181.25%">
            <stop offset="0%" stop-color="#FFF4E7"/>
            <stop offset="47.226%" stop-color="#FFC49F"/>
            <stop offset="100%" stop-color="#FF6CC7"/>
        </linearGradient>
        <linearGradient id="r" x1="26.775%" x2="80.759%" y1="-35.618%" y2="181.25%">
            <stop offset="0%" stop-color="#FFF4E7"/>
            <stop offset="47.226%" stop-color="#FFC49F"/>
            <stop offset="100%" stop-color="#FF6CC7"/>
        </linearGradient>
        <linearGradient id="s" x1="-24.48%" x2="148.64%" y1="-35.618%" y2="181.25%">
            <stop offset="0%" stop-color="#FFC275"/>
            <stop offset="47.226%" stop-color="#F72"/>
            <stop offset="100%" stop-color="#FF43B8"/>
        </linearGradient>
        <radialGradient id="t" cy="0%" r="95.146%" fx="50%" fy="0%" gradientTransform="matrix(.12615 .98963 -.99201 .12585 .437 -.495)">
            <stop offset="0%" stop-color="#FFF"/>
            <stop offset="100%" stop-color="#FFF" stop-opacity=".551"/>
        </radialGradient>
    </defs>
    <g fill="none" fill-rule="evenodd">
        <mask id="d" fill="#fff">
            <use xlink:href="#a"/>
        </mask>
        <use fill="url(#b)" fill-rule="nonzero" xlink:href="#a"/>
        <path fill="url(#c)" d="M1.967 119.924c-5.92-19.165 1.26-37.977 25.119-42.7C74.88 67.76 56.26 0 136.282 0c18.475 0 34.008 3.08 46.653 8.548 2.592 28.49 2.836 50.794.731 66.912-3.894 29.823-37.076 64.778-95.581 64.778-34.32 0-63.026-6.771-86.118-20.314z" mask="url(#d)" opacity=".462"/>
        <g mask="url(#d)">
            <path fill="url(#e)" fill-rule="nonzero" d="M53.033 78.88c3.042 1.214 4.563.376 4.563-2.514 0-4.335-4.943-6.718-9.096-12.277-4.153-5.558-8.435-16.015-9.38-30.882-1.904-29.971 37.225-41.421 58.267-21.71 21.041 19.712 20.413 52.517 22.016 58.267 1.068 3.833 3.543 4.929 7.425 3.288-1.698 2.587-5.137 4.26-10.316 5.017-4.694.687-44.84 3.882-54.16 3.882-6.212 0-9.319-1.024-9.319-3.072z" transform="rotate(2 -655.494 808.608)"/>
            <path fill="url(#f)" fill-rule="nonzero" d="M75.253 73.073l2.242 12.978 22.085-4.127c-4.345-7.115-6.783-12.236-7.311-15.364-.53-3.128-1.238-7.797-2.127-14.006l-14.889 20.52z" transform="translate(26.31 26.238)"/>
            <path fill="#ED967F" fill-rule="nonzero" d="M111.243 85.972c2.669-.24 3.497 1.534 2.484 5.319-2.217 8.289-5.931 12.933-11.142 13.933l-1.021-5.913 9.68-13.34z"/>
            <path fill="url(#g)" fill-rule="nonzero" d="M5.561 22.143C4.298 37.386 8.87 46.21 19.277 48.615 29.684 51.021 40.26 41.85 51.007 21.1c-5.966-3.98-9.857-7.005-11.675-9.076-2.857-3.255-4.85-7.23-5.98-11.922-5.996 1.272-11.705 3.634-17.126 7.086-2.803 1.786-5.012 4.507-6.626 8.164.094-4.333-1.252-6.5-4.039-6.5-4.18 0-4.615 8.46-3.356 11.205.839 1.83 1.958 2.526 3.356 2.087z" transform="scale(-1 1) rotate(-13 195.225 588.867)"/>
            <path fill="#ED967F" fill-rule="nonzero" d="M117.147 71.437c1.058-3 2.042-3.809 2.952-2.425.91 1.383 1.008 3.006.292 4.87-.075-2.268-.383-3.605-.925-4.013-.542-.409-1.315.114-2.32 1.568z"/>
            <path fill="#FFF" fill-rule="nonzero" d="M100.114 88.137c-2.28.787-3.914 1.235-4.904 1.345-.99.11-2.714.22-5.173.33 1.184 2.941 3.05 4.2 5.6 3.775 2.548-.423 4.04-2.24 4.477-5.45z"/>
            <path fill="#ED967F" fill-rule="nonzero" d="M88.428 77.357c.26 1.083.063 2.345-.592 3.786-.984 2.16-1.936 3.873-.053 4.306 1.256.288 2.311.568 3.166.84-2.107-.862-3.093-1.585-2.958-2.17.202-.875.502-2.153.851-3.666.233-1.008.095-2.04-.414-3.096z"/>
            <path fill="url(#h)" fill-rule="nonzero" d="M24.48 12.895c.7.876 2.045.541 4.029 1.255 1.984.715 2.217 2.78 3.345 3.158 1.127.379.972-2.93-1.53-4.66-2.5-1.732-6.545-.628-5.845.247z" transform="scale(-1 1) rotate(-19 122.068 413.906)"/>
            <path fill="url(#i)" fill-rule="nonzero" d="M40.98 20.146c.753 1.508 2.38.332 4.397 1.481 2.018 1.15 1.301 3.287 2.753 3.872 1.452.585 1.518-3.178-.757-5.23-2.275-2.052-7.145-1.631-6.392-.123z" transform="scale(-1 1) rotate(-13 195.225 588.867)"/>
            <path fill="#2F2E41" d="M78.19 77.32c.542 1.644 1.677 2.316 3.406 2.015 1.728-.3 2.596-1.52 2.605-3.66-.577 1.163-1.497 1.946-2.76 2.35-1.261.403-2.346.168-3.251-.705zM94.444 74.062c.542 1.644 1.678 2.316 3.406 2.015 1.728-.3 2.597-1.52 2.606-3.66-.578 1.163-1.497 1.947-2.76 2.35-1.262.403-2.346.168-3.252-.705z"/>
            <path fill="url(#j)" fill-rule="nonzero" d="M65.394 99.512c-7.683 4.844-8.444 22.19-11.699 36.765-1.868 8.367-3.74 20.986-5.612 37.855-17.489 1.709-28.022 2.857-31.598 3.443-3.577.587-6.816-.754-9.72-4.024-5.334-1.144-7.514 1.621-6.54 8.296.975 6.675 5.727 8.828 14.255 6.46 26.264 4.434 43.235 4.994 50.914 1.68 11.518-4.97 21.447-103.997 0-90.475z" transform="translate(26.31 26.238)"/>
            <path fill="url(#k)" fill-rule="nonzero" d="M64.844 91.8c-3.421 1.77-6.252 6.634-8.494 14.594-2.241 7.96-3.523 14.889-3.846 20.787 5.127 1.68 8.657 3.556 10.591 5.63 1.934 2.073 2.517-11.597 1.749-41.01z" transform="translate(26.31 26.238)"/>
            <path fill="url(#l)" fill-rule="nonzero" d="M67.103 90.377c1.838-.92 7.003-3.014 8.226-4.326 1.7-1.824 1.7-5.087 0-9.79.681.946 3.343.946 7.985 0 4.642-.944 8.41-2.511 11.305-4.7 2.527 6.933 4.703 10.708 6.527 11.323 2.083.703 17.26 5.092 28.91 9.689 5.359 2.114 11.98 11.494 14.402 13.841 5.414 5.248-25.083 37.523-18.993 64.561 6.096 27.067 30.44 71.51-17.576 78.964-18.254 2.835-29.107 4.658-32.56 5.47 0-7.048-7.858-11.356-23.575-12.924-15.716-1.569-31.848-2.606-48.395-3.114 9.288-7.927 22.861-17.424 40.72-28.489 12.015-7.444 22.399-11.058 25.65-18.665 3.082-7.207.382-29.97-1.001-33.488-1.384-3.52-6.573-13.576-6.987-17.811-.998-10.21-.246-18.045.581-21.796 4.527-20.538-3.725-24.49 4.78-28.745z" transform="translate(26.31 26.238)"/>
            <path fill="url(#m)" fill-rule="nonzero" d="M137.046 114.033c15.037 9.987 10.285 29.708 7.605 48.13-2.68 18.423-5.98 32.019-13.43 35.293-3.05 1.341-15.855 6.307-27.567 8.843-22.171 4.8-52.224 8.645-56.677 8.645-2.168 0-5.998-2.873-8.134-1.926-4.568 2.025-5.311 5.154-8.869 2.637-1.959-1.385-.205-17.03 8.869-17.03 9.073 0 12.19 6.3 14.94 6.3 1.558 0 33.231-14.25 45.797-19.094 7.594-2.927 13.56-5.835 17.896-8.724 3.022-25.75 4.886-42.519 5.592-50.308 1.06-11.683-1.06-22.753 13.978-12.766z" transform="translate(26.31 26.238)"/>
            <path fill="url(#n)" fill-rule="nonzero" d="M121.155 134.65c-.678-12.91-.678-21.409 0-25.499 2.04-12.292 7.36-17.362 11.208-15.787 8.653 3.541 15.735 13.527 15.735 25.333 0 7.87-.178 13.97-.533 18.302-1.594-1.971-4.761-3.297-9.502-3.977-4.742-.68-10.377-.137-16.908 1.628z" transform="translate(26.31 26.238)"/>
        </g>
        <g mask="url(#d)">
            <g transform="translate(121.573 73.286)">
                <path fill="url(#o)" d="M23.325 45.524c-2.729 1.679-4.093 4.366-4.093 8.063v11.957c-3.138 3.705-3.923 5.557-2.354 5.557 1.57 0 3.286-1.015 5.15-3.045V53.587c0-3.014 1.41-5.544 4.226-7.591l-2.929-.472z"/>
                <path fill="url(#p)" d="M22.178 64.6c1.048 3.695.971 5.735-.23 6.118-1.804.575-8.436 2.916-7.145 0 .86-1.944 2.21-3.668 4.046-5.174l3.329-.944z"/>
                <path fill="url(#o)" d="M50.856 45.141c-2.729 1.678-4.093 4.366-4.093 8.063V65.16c-3.138 3.706-3.923 5.558-2.354 5.558 1.57 0 3.286-1.015 5.15-3.045v-14.47c0-3.013 1.41-5.543 4.227-7.59l-2.93-.472z" transform="matrix(-1 0 0 1 97.41 0)"/>
                <path fill="url(#q)" d="M53.786 26.809c5.016-1.212 8.118-3.683 9.306-7.414 1.188-3.731 1.74-7.746 1.657-12.046-.334-1.871-.463-3.17-.387-3.9C64.674.49 65.62-.39 66.176.768c1.443 3.002 1.338 4.14 1.505 5.193.167 1.053-.713 1.385-.785 2.137-.448 4.729-.324 8.798-1.595 12.678-1.472 4.497-5.311 7.308-11.515 8.432V26.81z"/>
                <path fill="url(#r)" d="M.253 26.809c5.016-.19 8.119-2.15 9.306-5.881 1.188-3.73 1.74-7.746 1.658-12.046-1.13-3.862-.585-5.793 1.638-5.793 2.222 0 2.543 1.93.963 5.793.107 4.453-.577 8.928-2.05 13.426-1.472 4.497-5.31 6.797-11.515 6.9v-2.4z" transform="matrix(-1 0 0 1 15.056 0)"/>
                <path fill="url(#p)" d="M54.297 64.6c1.049 3.695.972 5.735-.23 6.118-1.803.575-8.436 2.916-7.145 0 .861-1.944 2.21-3.668 4.047-5.174l3.328-.944z" transform="matrix(-1 0 0 1 101.787 0)"/>
                <rect width="41.297" height="41.396" x="13.766" y="4.983" fill="url(#s)" rx="3.681"/>
                <path fill="url(#t)" d="M55.062 14.273a3.669 3.669 0 0 0-2.534-1.011H25.63a3.681 3.681 0 0 0-3.682 3.682v26.98c0 .943.355 1.803.938 2.455h-5.439a3.681 3.681 0 0 1-3.681-3.682V8.664a3.681 3.681 0 0 1 3.681-3.681h33.934a3.681 3.681 0 0 1 3.681 3.681v5.61z" opacity=".322"/>
            </g>
            <g stroke="#3F3D56" stroke-width="1.381">
                <path d="M144.254 96.966c0-1.363 1.034-2.468 2.31-2.468 1.275 0 2.309 1.105 2.309 2.468M165.5 96.657c0-1.363 1.033-2.468 2.308-2.468 1.276 0 2.31 1.105 2.31 2.468"/>
            </g>
            <path fill="#FFF" d="M146.033 102.327h21.792c-.082 5.937-4.929 10.724-10.896 10.724-5.967 0-10.814-4.787-10.896-10.724z"/>
        </g>
    </g>
</svg>
