<svg xmlns="http://www.w3.org/2000/svg" width="40" height="39" viewBox="0 0 40 39">
    <g fill="none" fill-rule="nonzero" transform="translate(.8)">
        <ellipse cx="19.461" cy="19.468" fill="#7668FF" rx="19.461" ry="19.468"/>
        <path fill="#F1F2F2" d="M31.381 13.991c-.834.37-1.73.62-2.672.732a4.666 4.666 0 0 0 2.046-2.574 9.31 9.31 0 0 1-2.954 1.13 4.653 4.653 0 0 0-7.927 4.245 13.203 13.203 0 0 1-9.588-4.864c-.4.688-.63 1.487-.63 2.34 0 1.614.822 3.04 2.07 3.874a4.617 4.617 0 0 1-2.107-.583v.059a4.656 4.656 0 0 0 3.731 4.562 4.634 4.634 0 0 1-2.1.08 4.657 4.657 0 0 0 4.345 3.233 9.33 9.33 0 0 1-5.778 1.992c-.374 0-.745-.022-1.109-.066a13.154 13.154 0 0 0 7.13 2.091c8.556 0 13.235-7.09 13.235-13.24 0-.202-.004-.403-.013-.602a9.435 9.435 0 0 0 2.321-2.409z"/>
    </g>
</svg>
